<?xml version="1.0" encoding="UTF-8"?>
<svg viewBox="0 0 421.61707 569.62811" xmlns="http://www.w3.org/2000/svg" xmlns:xlink="http://www.w3.org/1999/xlink">
 <g transform="matrix(2.728 -1.575 1.575 2.728 -4385.1 1058.7)">
  <path transform="translate(8 8)" d="m1430 469.36c0 24.853-20.147 45-45 45s-45-20.147-45-45 20.147-45 45-45 45 20.147 45 45z" fill="#ccc"/>
  <path d="m1393 424.38c-29.256 0-53 23.744-53 53 0 25.98 18.725 47.606 43.406 52.125-0.1852 4.0398-3.9062 85.128-3.9062 85.25 0 3.657 6.0438 6.625 13.5 6.625s13.5-2.968 13.5-6.625l-3.9062-85.25c24.681-4.5188 43.406-26.145 43.406-52.125 0-29.256-23.744-53-53-53zm0 8c24.84 1e-5 45 20.16 45 45s-20.16 45-45 45-45-20.16-45-45 20.16-45 45-45z"/>
  <path d="m1393 432.38c-22.618 0-41.329 16.694-44.5 38.438 6.622 3.8351 14.302 6.0625 22.5 6.0625 22.618 0 41.329-16.725 44.5-38.469-6.622-3.8351-14.302-6.0312-22.5-6.0312z" fill="#f2f2f2"/>
 </g>
</svg>
